<svg xmlns="http://www.w3.org/2000/svg" viewBox="0 0 52 26">
  <path fill="#0f0" d="M6.6 2.73v3.25H5.1V2.73zm-3 0v3.25H2.1V2.73zm5.16 0h1.73v3.33h2.16V2.73h1.73v8.74h-1.73V7.58H10.5v3.9H8.76zm12.88 8.42a6.53 6.53 0 0 1-2.54.5c-1.1 0-1.93-.3-2.51-.89-.58-.59-.87-1.43-.87-2.54 0-1.07.28-1.91.83-2.54a2.92 2.92 0 0 1 2.29-.93c.97 0 1.73.3 2.26.87.54.57.81 1.38.81 2.43v.7h-4.45c0 .51.16.9.46 1.15s.75.38 1.35.38a4.5 4.5 0 0 0 2.36-.71zm-1.46-3.69c0-.45-.12-.8-.35-1.03s-.55-.35-.99-.35c-.4 0-.7.12-.94.36s-.38.58-.42 1.03zm4.48 1.28V3.67h-1.74V2.36h3.46v6.38c0 .51.08.88.24 1.1.16.2.43.32.82.32h1.37v1.31h-1.85c-.82 0-1.4-.2-1.76-.63-.36-.42-.53-1.12-.53-2.1zm7.22 0V3.67h-1.74V2.36h3.46v6.38c0 .51.08.88.24 1.1.16.2.43.32.81.32h1.38v1.31h-1.86c-.81 0-1.4-.2-1.75-.63-.36-.42-.54-1.12-.54-2.1zm8.56-2.59c-.4 0-.73.18-.96.54-.24.36-.36.86-.36 1.5s.12 1.16.36 1.52c.23.36.55.54.96.54.42 0 .74-.18.98-.54.23-.36.35-.87.35-1.51 0-.65-.12-1.15-.35-1.51a1.1 1.1 0 0 0-.98-.54zM37.41 8.2c0-1.06.27-1.9.82-2.52a2.8 2.8 0 0 1 2.21-.93c.93 0 1.67.31 2.22.93.55.62.82 1.46.82 2.52s-.27 1.9-.82 2.51c-.55.62-1.29.93-2.22.93a2.8 2.8 0 0 1-2.2-.93 3.66 3.66 0 0 1-.83-2.51zM7.96 14.73h1.51l.63 6.42.75-4.16h1.44l.88 4.16.49-6.42h1.52l-1 8.74h-1.62l-1-4.59-.92 4.6h-1.6zm10.83 3.42c-.41 0-.74.18-.97.54-.23.36-.35.86-.35 1.5 0 .65.12 1.16.35 1.52.23.36.56.54.97.54.41 0 .74-.18.97-.54.23-.36.35-.87.35-1.51 0-.65-.12-1.15-.35-1.51a1.1 1.1 0 0 0-.97-.54zm-3.04 2.05c0-1.06.28-1.9.83-2.52a2.8 2.8 0 0 1 2.2-.93c.94 0 1.68.31 2.22.93.55.62.83 1.46.83 2.52s-.28 1.9-.83 2.52a2.8 2.8 0 0 1-2.21.92 2.8 2.8 0 0 1-2.21-.92 3.66 3.66 0 0 1-.83-2.52zm13.39-1.48c-.19-.17-.4-.3-.66-.38a2.55 2.55 0 0 0-1.78.06 1.43 1.43 0 0 0-.83 1.09c-.03.21-.05.53-.05.96v3.02H24.1v-6.56h1.72v1.02c.17-.37.42-.66.77-.87.35-.2.76-.3 1.22-.3a2.79 2.79 0 0 1 1.33.33zm2.74 2.02v-5.07h-1.74v-1.31h3.46v6.38c0 .51.08.88.24 1.1.16.2.43.31.81.31h1.38v1.32h-1.86c-.81 0-1.4-.2-1.75-.63-.36-.42-.54-1.12-.54-2.1zm9.59-2.9v-3.48h1.71v9.11h-1.71v-.97c-.18.38-.42.67-.71.86-.3.19-.64.28-1.03.28a2 2 0 0 1-1.75-.9 4.45 4.45 0 0 1-.62-2.54c0-1.11.21-1.96.63-2.56a2.08 2.08 0 0 1 2.74-.61c.28.18.53.45.74.81zm-2.38 2.38c0 .64.1 1.13.32 1.5.21.35.5.53.87.53s.67-.18.88-.54c.22-.36.32-.85.32-1.49s-.1-1.12-.32-1.48c-.21-.36-.5-.54-.88-.54s-.66.18-.87.54c-.21.36-.32.85-.32 1.48zm10.81-5.49v3.25h-1.5v-3.25zm-3 0v3.25h-1.5v-3.25z"/>
</svg>
